<mxfile host="app.diagrams.net" modified="2024-07-06T06:50:24.125Z" agent="Mozilla/5.0 (Windows NT 10.0; Win64; x64) AppleWebKit/537.36 (KHTML, like Gecko) Chrome/126.0.0.0 Safari/537.36" etag="G4e6Euw5DmxhcRHdsgp2" version="24.6.4" type="device">
  <diagram name="Page-1" id="iqrGZ__43EqKG2Y7HKiT">
    <mxGraphModel dx="1050" dy="557" grid="1" gridSize="10" guides="1" tooltips="1" connect="1" arrows="1" fold="1" page="1" pageScale="1" pageWidth="827" pageHeight="1169" math="0" shadow="0">
      <root>
        <mxCell id="0" />
        <mxCell id="1" parent="0" />
        <mxCell id="emtfSQkOROYO8qkGiPeN-2" style="edgeStyle=orthogonalEdgeStyle;rounded=0;orthogonalLoop=1;jettySize=auto;html=1;" edge="1" parent="1" source="emtfSQkOROYO8qkGiPeN-1" target="emtfSQkOROYO8qkGiPeN-3">
          <mxGeometry relative="1" as="geometry">
            <mxPoint x="170" y="285" as="targetPoint" />
          </mxGeometry>
        </mxCell>
        <mxCell id="emtfSQkOROYO8qkGiPeN-1" value="" style="image;aspect=fixed;perimeter=ellipsePerimeter;html=1;align=center;shadow=0;dashed=0;spacingTop=3;image=img/lib/active_directory/laptop_client.svg;" vertex="1" parent="1">
          <mxGeometry x="60" y="260" width="45" height="50" as="geometry" />
        </mxCell>
        <mxCell id="emtfSQkOROYO8qkGiPeN-4" style="edgeStyle=orthogonalEdgeStyle;rounded=0;orthogonalLoop=1;jettySize=auto;html=1;exitX=0.855;exitY=0.145;exitDx=0;exitDy=0;exitPerimeter=0;" edge="1" parent="1" source="emtfSQkOROYO8qkGiPeN-3" target="emtfSQkOROYO8qkGiPeN-8">
          <mxGeometry relative="1" as="geometry">
            <mxPoint x="280" y="260" as="targetPoint" />
            <Array as="points">
              <mxPoint x="199" y="210" />
            </Array>
          </mxGeometry>
        </mxCell>
        <mxCell id="emtfSQkOROYO8qkGiPeN-5" style="edgeStyle=orthogonalEdgeStyle;rounded=0;orthogonalLoop=1;jettySize=auto;html=1;" edge="1" parent="1" source="emtfSQkOROYO8qkGiPeN-3">
          <mxGeometry relative="1" as="geometry">
            <mxPoint x="290" y="285" as="targetPoint" />
          </mxGeometry>
        </mxCell>
        <mxCell id="emtfSQkOROYO8qkGiPeN-7" style="edgeStyle=orthogonalEdgeStyle;rounded=0;orthogonalLoop=1;jettySize=auto;html=1;exitX=0.855;exitY=0.855;exitDx=0;exitDy=0;exitPerimeter=0;" edge="1" parent="1" source="emtfSQkOROYO8qkGiPeN-3" target="emtfSQkOROYO8qkGiPeN-9">
          <mxGeometry relative="1" as="geometry">
            <mxPoint x="280" y="310" as="targetPoint" />
            <Array as="points">
              <mxPoint x="199" y="360" />
            </Array>
          </mxGeometry>
        </mxCell>
        <mxCell id="emtfSQkOROYO8qkGiPeN-3" value="" style="outlineConnect=0;dashed=0;verticalLabelPosition=bottom;verticalAlign=top;align=center;html=1;shape=mxgraph.aws3.classic_load_balancer;fillColor=#F58534;gradientColor=none;" vertex="1" parent="1">
          <mxGeometry x="135.5" y="250" width="74.5" height="70" as="geometry" />
        </mxCell>
        <mxCell id="emtfSQkOROYO8qkGiPeN-14" style="edgeStyle=orthogonalEdgeStyle;rounded=0;orthogonalLoop=1;jettySize=auto;html=1;" edge="1" parent="1" source="emtfSQkOROYO8qkGiPeN-8" target="emtfSQkOROYO8qkGiPeN-12">
          <mxGeometry relative="1" as="geometry" />
        </mxCell>
        <mxCell id="emtfSQkOROYO8qkGiPeN-17" style="edgeStyle=orthogonalEdgeStyle;rounded=0;orthogonalLoop=1;jettySize=auto;html=1;entryX=-0.047;entryY=0.346;entryDx=0;entryDy=0;entryPerimeter=0;" edge="1" parent="1" source="emtfSQkOROYO8qkGiPeN-8" target="emtfSQkOROYO8qkGiPeN-13">
          <mxGeometry relative="1" as="geometry">
            <mxPoint x="345" y="80" as="targetPoint" />
          </mxGeometry>
        </mxCell>
        <mxCell id="emtfSQkOROYO8qkGiPeN-21" style="edgeStyle=orthogonalEdgeStyle;rounded=0;orthogonalLoop=1;jettySize=auto;html=1;entryX=0.5;entryY=0;entryDx=0;entryDy=0;" edge="1" parent="1" source="emtfSQkOROYO8qkGiPeN-8" target="emtfSQkOROYO8qkGiPeN-1">
          <mxGeometry relative="1" as="geometry" />
        </mxCell>
        <mxCell id="emtfSQkOROYO8qkGiPeN-8" value="" style="sketch=0;outlineConnect=0;fontColor=#232F3E;gradientColor=none;fillColor=#232F3D;strokeColor=none;dashed=0;verticalLabelPosition=bottom;verticalAlign=top;align=center;html=1;fontSize=12;fontStyle=0;aspect=fixed;pointerEvents=1;shape=mxgraph.aws4.servers;" vertex="1" parent="1">
          <mxGeometry x="320" y="180" width="50" height="50" as="geometry" />
        </mxCell>
        <mxCell id="emtfSQkOROYO8qkGiPeN-20" style="edgeStyle=orthogonalEdgeStyle;rounded=0;orthogonalLoop=1;jettySize=auto;html=1;entryX=0.5;entryY=1;entryDx=0;entryDy=0;" edge="1" parent="1" source="emtfSQkOROYO8qkGiPeN-9" target="emtfSQkOROYO8qkGiPeN-1">
          <mxGeometry relative="1" as="geometry" />
        </mxCell>
        <mxCell id="emtfSQkOROYO8qkGiPeN-9" value="" style="sketch=0;outlineConnect=0;fontColor=#232F3E;gradientColor=none;fillColor=#232F3D;strokeColor=none;dashed=0;verticalLabelPosition=bottom;verticalAlign=top;align=center;html=1;fontSize=12;fontStyle=0;aspect=fixed;pointerEvents=1;shape=mxgraph.aws4.servers;" vertex="1" parent="1">
          <mxGeometry x="330" y="330" width="50" height="50" as="geometry" />
        </mxCell>
        <mxCell id="emtfSQkOROYO8qkGiPeN-16" style="edgeStyle=orthogonalEdgeStyle;rounded=0;orthogonalLoop=1;jettySize=auto;html=1;" edge="1" parent="1" source="emtfSQkOROYO8qkGiPeN-10">
          <mxGeometry relative="1" as="geometry">
            <mxPoint x="550" y="140" as="targetPoint" />
          </mxGeometry>
        </mxCell>
        <mxCell id="emtfSQkOROYO8qkGiPeN-18" style="edgeStyle=orthogonalEdgeStyle;rounded=0;orthogonalLoop=1;jettySize=auto;html=1;" edge="1" parent="1" source="emtfSQkOROYO8qkGiPeN-10" target="emtfSQkOROYO8qkGiPeN-13">
          <mxGeometry relative="1" as="geometry" />
        </mxCell>
        <mxCell id="emtfSQkOROYO8qkGiPeN-22" style="edgeStyle=orthogonalEdgeStyle;rounded=0;orthogonalLoop=1;jettySize=auto;html=1;entryX=1;entryY=0.5;entryDx=0;entryDy=0;" edge="1" parent="1" source="emtfSQkOROYO8qkGiPeN-10" target="emtfSQkOROYO8qkGiPeN-1">
          <mxGeometry relative="1" as="geometry" />
        </mxCell>
        <mxCell id="emtfSQkOROYO8qkGiPeN-10" value="" style="sketch=0;outlineConnect=0;fontColor=#232F3E;gradientColor=none;fillColor=#232F3D;strokeColor=none;dashed=0;verticalLabelPosition=bottom;verticalAlign=top;align=center;html=1;fontSize=12;fontStyle=0;aspect=fixed;pointerEvents=1;shape=mxgraph.aws4.servers;" vertex="1" parent="1">
          <mxGeometry x="292" y="260" width="40" height="40" as="geometry" />
        </mxCell>
        <mxCell id="emtfSQkOROYO8qkGiPeN-11" value="" style="outlineConnect=0;dashed=0;verticalLabelPosition=bottom;verticalAlign=top;align=center;html=1;shape=mxgraph.aws3.mysql_db_instance;fillColor=#2E73B8;gradientColor=none;" vertex="1" parent="1">
          <mxGeometry x="500" y="380" width="60" height="64.5" as="geometry" />
        </mxCell>
        <mxCell id="emtfSQkOROYO8qkGiPeN-12" value="" style="outlineConnect=0;dashed=0;verticalLabelPosition=bottom;verticalAlign=top;align=center;html=1;shape=mxgraph.aws3.mysql_db_instance;fillColor=#2E73B8;gradientColor=none;" vertex="1" parent="1">
          <mxGeometry x="500" y="70" width="60" height="64.5" as="geometry" />
        </mxCell>
        <mxCell id="emtfSQkOROYO8qkGiPeN-13" value="" style="verticalLabelPosition=bottom;aspect=fixed;html=1;shape=mxgraph.salesforce.service;" vertex="1" parent="1">
          <mxGeometry x="380" y="60" width="60" height="49.199999999999996" as="geometry" />
        </mxCell>
        <mxCell id="emtfSQkOROYO8qkGiPeN-15" style="edgeStyle=orthogonalEdgeStyle;rounded=0;orthogonalLoop=1;jettySize=auto;html=1;entryX=0;entryY=0.5;entryDx=0;entryDy=0;entryPerimeter=0;" edge="1" parent="1" source="emtfSQkOROYO8qkGiPeN-9" target="emtfSQkOROYO8qkGiPeN-11">
          <mxGeometry relative="1" as="geometry" />
        </mxCell>
        <mxCell id="emtfSQkOROYO8qkGiPeN-19" style="edgeStyle=orthogonalEdgeStyle;rounded=0;orthogonalLoop=1;jettySize=auto;html=1;entryX=1;entryY=0.813;entryDx=0;entryDy=0;entryPerimeter=0;" edge="1" parent="1" source="emtfSQkOROYO8qkGiPeN-9" target="emtfSQkOROYO8qkGiPeN-13">
          <mxGeometry relative="1" as="geometry" />
        </mxCell>
      </root>
    </mxGraphModel>
  </diagram>
</mxfile>
